<svg viewBox="0 0 551 371" fill="none" xmlns="http://www.w3.org/2000/svg">
<circle cx="5.10266" cy="5.95825" r="5" fill="#7A3199"/>
<circle cx="5.10266" cy="65.9583" r="5" fill="#7A3199"/>
<circle cx="5.10266" cy="125.958" r="5" fill="#7A3199"/>
<circle cx="5.10266" cy="185.958" r="5" fill="#7A3199"/>
<circle cx="5.10266" cy="245.958" r="5" fill="#7A3199"/>
<circle cx="5.10266" cy="305.958" r="5" fill="#7A3199"/>
<circle cx="5.10266" cy="365.958" r="5" fill="#7A3199"/>
<circle cx="65.1027" cy="5.95825" r="5" fill="#7A3199"/>
<circle cx="65.1027" cy="65.9583" r="5" fill="#7A3199"/>
<circle cx="65.1027" cy="125.958" r="5" fill="#7A3199"/>
<circle cx="65.1027" cy="185.958" r="5" fill="#7A3199"/>
<circle cx="65.1027" cy="245.958" r="5" fill="#7A3199"/>
<circle cx="65.1027" cy="305.958" r="5" fill="#7A3199"/>
<circle cx="65.1027" cy="365.958" r="5" fill="#7A3199"/>
<circle cx="125.103" cy="5.95825" r="5" fill="#7A3199"/>
<circle cx="125.103" cy="65.9583" r="5" fill="#7A3199"/>
<circle cx="125.103" cy="125.958" r="5" fill="#7A3199"/>
<circle cx="125.103" cy="185.958" r="5" fill="#7A3199"/>
<circle cx="125.103" cy="245.958" r="5" fill="#7A3199"/>
<circle cx="125.103" cy="305.958" r="5" fill="#7A3199"/>
<circle cx="125.103" cy="365.958" r="5" fill="#7A3199"/>
<circle cx="185.103" cy="5.95825" r="5" fill="#7A3199"/>
<circle cx="185.103" cy="65.9583" r="5" fill="#7A3199"/>
<circle cx="185.103" cy="125.958" r="5" fill="#7A3199"/>
<circle cx="185.103" cy="185.958" r="5" fill="#7A3199"/>
<circle cx="185.103" cy="245.958" r="5" fill="#7A3199"/>
<circle cx="185.103" cy="305.958" r="5" fill="#7A3199"/>
<circle cx="185.103" cy="365.958" r="5" fill="#7A3199"/>
<circle cx="245.103" cy="5.95825" r="5" fill="#7A3199"/>
<circle cx="245.103" cy="65.9583" r="5" fill="#7A3199"/>
<circle cx="245.103" cy="125.958" r="5" fill="#7A3199"/>
<circle cx="245.103" cy="185.958" r="5" fill="#7A3199"/>
<circle cx="245.103" cy="245.958" r="5" fill="#7A3199"/>
<circle cx="245.103" cy="305.958" r="5" fill="#7A3199"/>
<circle cx="245.103" cy="365.958" r="5" fill="#7A3199"/>
<circle cx="305.103" cy="5.95825" r="5" fill="#7A3199"/>
<circle cx="305.103" cy="65.9583" r="5" fill="#7A3199"/>
<circle cx="305.103" cy="125.958" r="5" fill="#7A3199"/>
<circle cx="305.103" cy="185.958" r="5" fill="#7A3199"/>
<circle cx="305.103" cy="245.958" r="5" fill="#7A3199"/>
<circle cx="305.103" cy="305.958" r="5" fill="#7A3199"/>
<circle cx="305.103" cy="365.958" r="5" fill="#7A3199"/>
<circle cx="365.103" cy="5.95825" r="5" fill="#7A3199"/>
<circle cx="365.103" cy="65.9583" r="5" fill="#7A3199"/>
<circle cx="365.103" cy="125.958" r="5" fill="#7A3199"/>
<circle cx="365.103" cy="185.958" r="5" fill="#7A3199"/>
<circle cx="365.103" cy="245.958" r="5" fill="#7A3199"/>
<circle cx="365.103" cy="305.958" r="5" fill="#7A3199"/>
<circle cx="365.103" cy="365.958" r="5" fill="#7A3199"/>
<circle cx="425.103" cy="5.95825" r="5" fill="#7A3199"/>
<circle cx="425.103" cy="65.9583" r="5" fill="#7A3199"/>
<circle cx="425.103" cy="125.958" r="5" fill="#7A3199"/>
<circle cx="425.103" cy="185.958" r="5" fill="#7A3199"/>
<circle cx="425.103" cy="245.958" r="5" fill="#7A3199"/>
<circle cx="425.103" cy="305.958" r="5" fill="#7A3199"/>
<circle cx="425.103" cy="365.958" r="5" fill="#7A3199"/>
<circle cx="485.103" cy="5.95825" r="5" fill="#7A3199"/>
<circle cx="485.103" cy="65.9583" r="5" fill="#7A3199"/>
<circle cx="485.103" cy="125.958" r="5" fill="#7A3199"/>
<circle cx="485.103" cy="185.958" r="5" fill="#7A3199"/>
<circle cx="485.103" cy="245.958" r="5" fill="#7A3199"/>
<circle cx="485.103" cy="305.958" r="5" fill="#7A3199"/>
<circle cx="485.103" cy="365.958" r="5" fill="#7A3199"/>
<circle cx="545.103" cy="5.95825" r="5" fill="#7A3199"/>
<circle cx="545.103" cy="65.9583" r="5" fill="#7A3199"/>
<circle cx="545.103" cy="125.958" r="5" fill="#7A3199"/>
<circle cx="545.103" cy="185.958" r="5" fill="#7A3199"/>
<circle cx="545.103" cy="245.958" r="5" fill="#7A3199"/>
<circle cx="545.103" cy="305.958" r="5" fill="#7A3199"/>
<circle cx="545.103" cy="365.958" r="5" fill="#7A3199"/>
</svg>
