<svg width="40" height="40" viewBox="0 0 40 40" fill="none" xmlns="http://www.w3.org/2000/svg">
<g id="pepicons-pencil:arrow-right">
<g id="Group">
<path id="Vector" fill-rule="evenodd" clip-rule="evenodd" d="M17.3061 28.768C17.1023 28.9376 16.8396 29.0195 16.5756 28.9955C16.3115 28.9715 16.0678 28.8436 15.8981 28.64L9.23205 20.64C9.06979 20.4355 8.99393 20.1756 9.02068 19.9159C9.04744 19.6562 9.17468 19.4173 9.37523 19.2502C9.57578 19.0831 9.83374 19.001 10.094 19.0215C10.3542 19.042 10.5962 19.1635 10.7681 19.36L17.4341 27.36C17.6037 27.5637 17.6855 27.8264 17.6615 28.0905C17.6375 28.3545 17.5097 28.5982 17.3061 28.768Z" fill="black"/>
<path id="Vector_2" fill-rule="evenodd" clip-rule="evenodd" d="M17.3061 11.232C17.5097 11.4018 17.6375 11.6455 17.6615 11.9095C17.6855 12.1735 17.6037 12.4363 17.4341 12.64L10.7681 20.64C10.5962 20.8365 10.3542 20.958 10.094 20.9785C9.83374 20.999 9.57578 20.9169 9.37523 20.7498C9.17468 20.5827 9.04744 20.3437 9.02068 20.084C8.99393 19.8244 9.06979 19.5645 9.23205 19.36L15.8981 11.36C16.0678 11.1564 16.3115 11.0285 16.5756 11.0045C16.8396 10.9805 17.1023 11.0623 17.3061 11.232Z" fill="black"/>
<path id="Vector_3" fill-rule="evenodd" clip-rule="evenodd" d="M9 20C9 19.7348 9.10536 19.4804 9.29289 19.2929C9.48043 19.1054 9.73478 19 10 19L30 19C30.2652 19 30.5196 19.1054 30.7071 19.2929C30.8946 19.4804 31 19.7348 31 20C31 20.2652 30.8946 20.5196 30.7071 20.7071C30.5196 20.8946 30.2652 21 30 21L10 21C9.73478 21 9.48043 20.8946 9.29289 20.7071C9.10536 20.5196 9 20.2652 9 20Z" fill="black"/>
</g>
</g>
</svg>
