<svg width="146" height="146" viewBox="0 0 146 146" fill="none" xmlns="http://www.w3.org/2000/svg">
<g filter="url(#filter0_d_103_229)">
<rect x="40.0183" y="30.0183" width="65" height="65" rx="5" fill="white"/>
<path fill-rule="evenodd" clip-rule="evenodd" d="M58.4851 58.4793C58.7151 54.9138 60.2936 51.5695 62.9001 49.1258C65.5066 46.682 68.9455 45.322 72.5184 45.322C76.0913 45.322 79.5302 46.682 82.1367 49.1258C84.7432 51.5695 86.3217 54.9138 86.5517 58.4793C87.4251 58.0272 88.4002 57.8077 89.3831 57.8417C90.366 57.8756 91.3236 58.1621 92.1637 58.6734C93.0038 59.1847 93.6981 59.9036 94.1798 60.761C94.6616 61.6184 94.9145 62.5854 94.9142 63.5689V67.7355C94.9143 68.515 94.7554 69.2862 94.4471 70.0021C94.1388 70.718 93.6877 71.3635 93.1214 71.899C92.555 72.4345 91.8854 72.8488 91.1534 73.1166C90.4214 73.3844 89.6424 73.5 88.8642 73.4564V73.4647C87.4299 73.4647 86.0542 72.8949 85.04 71.8806C84.0257 70.8664 83.4559 69.4907 83.4559 68.0564V59.4022C83.4559 56.5014 82.3036 53.7194 80.2524 51.6682C78.2012 49.617 75.4192 48.4647 72.5184 48.4647C69.6176 48.4647 66.8356 49.617 64.7844 51.6682C62.7332 53.7194 61.5809 56.5014 61.5809 59.4022V68.0564C61.5809 69.4907 61.0111 70.8664 59.9968 71.8806C58.9826 72.8949 57.6069 73.4647 56.1726 73.4647V73.4564C55.3943 73.5 54.6154 73.3844 53.8834 73.1166C53.1514 72.8488 52.4818 72.4345 51.9154 71.899C51.3491 71.3635 50.898 70.718 50.5897 70.0021C50.2814 69.2862 50.1225 68.515 50.1226 67.7355V63.5689C50.1223 62.5854 50.3752 61.6184 50.857 60.761C51.3387 59.9036 52.033 59.1847 52.8731 58.6734C53.7132 58.1621 54.6708 57.8756 55.6537 57.8417C56.6366 57.8077 57.6116 58.0272 58.4851 58.4793ZM58.4559 63.5689C58.4556 62.8782 58.181 62.2159 57.6924 61.7277C57.2038 61.2396 56.5414 60.9655 55.8507 60.9657C55.16 60.966 54.4977 61.2406 54.0096 61.7292C53.5214 62.2178 53.2473 62.8803 53.2476 63.5709V67.7376C53.2476 68.4283 53.5219 69.0907 54.0103 69.579C54.4987 70.0674 55.1611 70.3418 55.8517 70.3418C56.5424 70.3418 57.2048 70.0674 57.6931 69.579C58.1815 69.0907 58.4559 68.4283 58.4559 67.7376C58.4559 67.7397 58.4559 67.7376 58.4559 67.7376V63.5709V63.5689ZM64.7059 59.4043C64.7059 57.3323 65.529 55.3451 66.9941 53.88C68.4592 52.4149 70.4464 51.5918 72.5184 51.5918C74.5904 51.5918 76.5775 52.4149 78.0427 53.88C79.5078 55.3451 80.3309 57.3323 80.3309 59.4043V65.6543C80.3309 67.4552 79.7088 69.2008 78.57 70.5959C77.4311 71.991 75.8453 72.95 74.0809 73.3105V78.1522C74.0809 78.5666 73.9163 78.964 73.6232 79.2571C73.3302 79.5501 72.9328 79.7147 72.5184 79.7147C72.104 79.7147 71.7066 79.5501 71.4135 79.2571C71.1205 78.964 70.9559 78.5666 70.9559 78.1522V73.3084C69.1914 72.9479 67.6057 71.9889 66.4668 70.5938C65.328 69.1987 64.7059 67.4531 64.7059 65.6522V59.4022V59.4043ZM68.0976 57.8418H68.3517C68.7661 57.8418 69.1636 58.0064 69.4566 58.2994C69.7496 58.5924 69.9142 58.9899 69.9142 59.4043C69.9142 59.8187 69.7496 60.2161 69.4566 60.5091C69.1636 60.8022 68.7661 60.9668 68.3517 60.9668H67.8309V64.0918H68.3517C68.7661 64.0918 69.1636 64.2564 69.4566 64.5494C69.7496 64.8424 69.9142 65.2399 69.9142 65.6543C69.9142 66.0687 69.7496 66.4661 69.4566 66.7591C69.1636 67.0522 68.7661 67.2168 68.3517 67.2168H68.0976C68.4201 68.1317 69.0185 68.924 69.8103 69.4844C70.6021 70.0448 71.5483 70.3458 72.5184 70.3458C73.4885 70.3458 74.4347 70.0448 75.2265 69.4844C76.0183 68.924 76.6167 68.1317 76.9392 67.2168H74.6017C74.1873 67.2168 73.7899 67.0522 73.4969 66.7591C73.2038 66.4661 73.0392 66.0687 73.0392 65.6543C73.0392 65.2399 73.2038 64.8424 73.4969 64.5494C73.7899 64.2564 74.1873 64.0918 74.6017 64.0918H77.2059V60.9668H74.6017C74.1873 60.9668 73.7899 60.8022 73.4969 60.5091C73.2038 60.2161 73.0392 59.8187 73.0392 59.4043C73.0392 58.9899 73.2038 58.5924 73.4969 58.2994C73.7899 58.0064 74.1873 57.8418 74.6017 57.8418H76.9392C76.6157 56.9278 76.0169 56.1366 75.2253 55.577C74.4336 55.0174 73.4879 54.7169 72.5184 54.7169C71.5489 54.7169 70.6032 55.0174 69.8115 55.577C69.0198 56.1366 68.421 56.9278 68.0976 57.8418ZM89.1851 60.9647C87.7476 60.9647 86.5809 62.1314 86.5809 63.5689V67.7355C86.5809 68.4262 86.8553 69.0886 87.3436 69.577C87.832 70.0653 88.4944 70.3397 89.1851 70.3397C89.8757 70.3397 90.5381 70.0653 91.0265 69.577C91.5149 69.0886 91.7892 68.4262 91.7892 67.7355V63.5689C91.7892 62.1314 90.6226 60.9647 89.1851 60.9647Z" fill="url(#paint0_linear_103_229)"/>
</g>
<defs>
<filter id="filter0_d_103_229" x="0.0183105" y="0.0183105" width="145" height="145" filterUnits="userSpaceOnUse" color-interpolation-filters="sRGB">
<feFlood flood-opacity="0" result="BackgroundImageFix"/>
<feColorMatrix in="SourceAlpha" type="matrix" values="0 0 0 0 0 0 0 0 0 0 0 0 0 0 0 0 0 0 127 0" result="hardAlpha"/>
<feOffset dy="10"/>
<feGaussianBlur stdDeviation="20"/>
<feComposite in2="hardAlpha" operator="out"/>
<feColorMatrix type="matrix" values="0 0 0 0 0.604167 0 0 0 0 0.58151 0 0 0 0 0.58151 0 0 0 0.25 0"/>
<feBlend mode="normal" in2="BackgroundImageFix" result="effect1_dropShadow_103_229"/>
<feBlend mode="normal" in="SourceGraphic" in2="effect1_dropShadow_103_229" result="shape"/>
</filter>
<linearGradient id="paint0_linear_103_229" x1="72.5184" y1="45.322" x2="72.5184" y2="79.7147" gradientUnits="userSpaceOnUse">
<stop stop-color="#7A3199"/>
<stop offset="1" stop-color="#161033"/>
</linearGradient>
</defs>
</svg>
