<svg width="20" height="20" viewBox="0 0 20 20" fill="none" xmlns="http://www.w3.org/2000/svg">
<g id="fluent-emoji-flat:star">
<path id="Vector" d="M11.6875 2.89188L13.0919 5.58563C13.1964 5.78393 13.3463 5.95465 13.5295 6.08382C13.7126 6.21299 13.9238 6.29693 14.1456 6.32876L17.1119 6.73501C18.6981 6.95376 19.3131 8.90938 18.14 9.99688L16.1088 11.8713C15.9356 12.0304 15.8057 12.2308 15.731 12.4537C15.6563 12.6767 15.6395 12.915 15.6819 13.1463L16.1775 15.895C16.4531 17.4263 14.86 18.62 13.4619 17.92L10.6269 16.5138C10.4317 16.4183 10.2173 16.3686 10 16.3686C9.78273 16.3686 9.56832 16.4183 9.37315 16.5138L6.53815 17.92C5.1394 18.6138 3.5469 17.4263 3.82252 15.895L4.31815 13.1456C4.40565 12.6769 4.24315 12.1956 3.8919 11.8706L1.86002 9.99688C0.686897 8.91563 1.3019 6.95313 2.88815 6.73438L5.8544 6.32813C6.0769 6.29829 6.28891 6.21514 6.47238 6.08576C6.65584 5.95637 6.80534 5.78458 6.90815 5.58501L8.31315 2.89188C9.02815 1.53563 10.9781 1.53563 11.6869 2.89188H11.6875Z" fill="#FCD53F"/>
</g>
</svg>
