<svg width="24" height="24" viewBox="0 0 24 24" fill="none" xmlns="http://www.w3.org/2000/svg">
<path d="M12 8.75C11.138 8.75 10.3114 9.09241 9.7019 9.7019C9.09241 10.3114 8.75 11.138 8.75 12C8.75 12.862 9.09241 13.6886 9.7019 14.2981C10.3114 14.9076 11.138 15.25 12 15.25C12.862 15.25 13.6886 14.9076 14.2981 14.2981C14.9076 13.6886 15.25 12.862 15.25 12C15.25 11.138 14.9076 10.3114 14.2981 9.7019C13.6886 9.09241 12.862 8.75 12 8.75Z" fill="white"/>
<path fill-rule="evenodd" clip-rule="evenodd" d="M6.76994 3.08194C10.246 2.69664 13.7539 2.69664 17.2299 3.08194C19.1289 3.29394 20.6599 4.78894 20.8829 6.69494C21.2952 10.2196 21.2952 13.7803 20.8829 17.3049C20.6599 19.2109 19.1289 20.7059 17.2309 20.9189C13.7546 21.3043 10.2463 21.3043 6.76994 20.9189C4.87094 20.7059 3.33994 19.2109 3.11694 17.3059C2.70467 13.781 2.70467 10.2199 3.11694 6.69494C3.33994 4.78894 4.87094 3.29394 6.76994 3.08194ZM16.9999 5.99994C16.7347 5.99994 16.4804 6.1053 16.2928 6.29284C16.1053 6.48037 15.9999 6.73473 15.9999 6.99994C15.9999 7.26516 16.1053 7.51951 16.2928 7.70705C16.4804 7.89459 16.7347 7.99994 16.9999 7.99994C17.2652 7.99994 17.5195 7.89459 17.7071 7.70705C17.8946 7.51951 17.9999 7.26516 17.9999 6.99994C17.9999 6.73473 17.8946 6.48037 17.7071 6.29284C17.5195 6.1053 17.2652 5.99994 16.9999 5.99994ZM7.24994 11.9999C7.24994 10.7402 7.75039 9.53198 8.64119 8.64119C9.53198 7.75039 10.7402 7.24994 11.9999 7.24994C13.2597 7.24994 14.4679 7.75039 15.3587 8.64119C16.2495 9.53198 16.7499 10.7402 16.7499 11.9999C16.7499 13.2597 16.2495 14.4679 15.3587 15.3587C14.4679 16.2495 13.2597 16.7499 11.9999 16.7499C10.7402 16.7499 9.53198 16.2495 8.64119 15.3587C7.75039 14.4679 7.24994 13.2597 7.24994 11.9999Z" fill="white"/>
</svg>
