<svg width="144" height="143" viewBox="0 0 144 143" fill="none" xmlns="http://www.w3.org/2000/svg">
<g filter="url(#filter0_d_103_225)">
<rect x="40.0013" y="30.1492" width="63" height="62" rx="5" fill="white" shape-rendering="crispEdges"/>
<path d="M80.4299 59.3635C80.4299 61.7315 79.4892 64.0025 77.8148 65.677C76.1403 67.3514 73.8693 68.2921 71.5013 68.2921C69.1333 68.2921 66.8623 67.3514 65.1879 65.677C63.5134 64.0025 62.5728 61.7315 62.5728 59.3635V46.8635C62.5728 44.4955 63.5134 42.2245 65.1879 40.5501C66.8623 38.8756 69.1333 37.9349 71.5013 37.9349C73.8693 37.9349 76.1403 38.8756 77.8148 40.5501C79.4892 42.2245 80.4299 44.4955 80.4299 46.8635V59.3635Z" stroke="url(#paint0_linear_103_225)" stroke-width="3" stroke-linecap="round" stroke-linejoin="round"/>
<path d="M89.3585 61.1492C89.3632 63.261 88.9507 65.353 88.1447 67.305C87.3387 69.257 86.1551 71.0306 84.6618 72.5239C83.1685 74.0172 81.3949 75.2008 79.4429 76.0068C77.4909 76.8128 75.3989 77.2253 73.2871 77.2206H69.7156C67.6038 77.2253 65.5118 76.8128 63.5598 76.0068C61.6078 75.2008 59.8342 74.0172 58.3409 72.5239C56.8476 71.0306 55.664 69.257 54.858 67.305C54.052 65.353 53.6395 63.261 53.6442 61.1492M71.5013 77.2206V84.3635" stroke="url(#paint1_linear_103_225)" stroke-width="3" stroke-linecap="round" stroke-linejoin="round"/>
</g>
<defs>
<filter id="filter0_d_103_225" x="0.00134277" y="0.14917" width="143" height="142" filterUnits="userSpaceOnUse" color-interpolation-filters="sRGB">
<feFlood flood-opacity="0" result="BackgroundImageFix"/>
<feColorMatrix in="SourceAlpha" type="matrix" values="0 0 0 0 0 0 0 0 0 0 0 0 0 0 0 0 0 0 127 0" result="hardAlpha"/>
<feOffset dy="10"/>
<feGaussianBlur stdDeviation="20"/>
<feComposite in2="hardAlpha" operator="out"/>
<feColorMatrix type="matrix" values="0 0 0 0 0.604167 0 0 0 0 0.58151 0 0 0 0 0.58151 0 0 0 0.25 0"/>
<feBlend mode="normal" in2="BackgroundImageFix" result="effect1_dropShadow_103_225"/>
<feBlend mode="normal" in="SourceGraphic" in2="effect1_dropShadow_103_225" result="shape"/>
</filter>
<linearGradient id="paint0_linear_103_225" x1="71.5013" y1="37.9349" x2="71.5013" y2="68.2921" gradientUnits="userSpaceOnUse">
<stop stop-color="#7A3199"/>
<stop offset="1" stop-color="#161033"/>
</linearGradient>
<linearGradient id="paint1_linear_103_225" x1="71.5013" y1="61.1492" x2="71.5013" y2="84.3635" gradientUnits="userSpaceOnUse">
<stop stop-color="#7A3199"/>
<stop offset="1" stop-color="#161033"/>
</linearGradient>
</defs>
</svg>
