<svg viewBox="0 0 1438 569" fill="none" xmlns="http://www.w3.org/2000/svg">
<path d="M1 288.808H190.75L268.59 531L328.593 0L429.678 397.374L521.573 201.69L769.15 288.808H1440" stroke="#7A3199" stroke-width="0.5"/>
<path d="M2 306.808H191.75L269.59 549L329.593 18L430.678 415.374L522.573 219.69L770.15 306.808H1441" stroke="#7A3199" stroke-width="0.5"/>
<path d="M3 325.808H192.75L270.59 568L330.593 37L431.678 434.374L523.573 238.69L771.15 325.808H1442" stroke="#7A3199" stroke-width="0.5"/>
<path d="M926.55 212.6C926.55 218.7 925.15 224.3 922.35 229.4C919.55 234.4 915.25 238.45 909.45 241.55C903.65 244.65 896.45 246.2 887.85 246.2H871.95V284H846.3V178.7H887.85C896.25 178.7 903.35 180.15 909.15 183.05C914.95 185.95 919.3 189.95 922.2 195.05C925.1 200.15 926.55 206 926.55 212.6ZM885.9 225.8C890.8 225.8 894.45 224.65 896.85 222.35C899.25 220.05 900.45 216.8 900.45 212.6C900.45 208.4 899.25 205.15 896.85 202.85C894.45 200.55 890.8 199.4 885.9 199.4H871.95V225.8H885.9ZM978.004 285.2C969.804 285.2 962.404 283.45 955.804 279.95C949.304 276.45 944.154 271.45 940.354 264.95C936.654 258.45 934.804 250.85 934.804 242.15C934.804 233.55 936.704 226 940.504 219.5C944.304 212.9 949.504 207.85 956.104 204.35C962.704 200.85 970.104 199.1 978.304 199.1C986.504 199.1 993.904 200.85 1000.5 204.35C1007.1 207.85 1012.3 212.9 1016.1 219.5C1019.9 226 1021.8 233.55 1021.8 242.15C1021.8 250.75 1019.85 258.35 1015.95 264.95C1012.15 271.45 1006.9 276.45 1000.2 279.95C993.604 283.45 986.204 285.2 978.004 285.2ZM978.004 263C982.904 263 987.054 261.2 990.454 257.6C993.954 254 995.704 248.85 995.704 242.15C995.704 235.45 994.004 230.3 990.604 226.7C987.304 223.1 983.204 221.3 978.304 221.3C973.304 221.3 969.154 223.1 965.854 226.7C962.554 230.2 960.904 235.35 960.904 242.15C960.904 248.85 962.504 254 965.704 257.6C969.004 261.2 973.104 263 978.004 263ZM1030.31 242C1030.31 233.4 1031.91 225.85 1035.11 219.35C1038.41 212.85 1042.86 207.85 1048.46 204.35C1054.06 200.85 1060.31 199.1 1067.21 199.1C1072.71 199.1 1077.71 200.25 1082.21 202.55C1086.81 204.85 1090.41 207.95 1093.01 211.85V173H1118.66V284H1093.01V272C1090.61 276 1087.16 279.2 1082.66 281.6C1078.26 284 1073.11 285.2 1067.21 285.2C1060.31 285.2 1054.06 283.45 1048.46 279.95C1042.86 276.35 1038.41 271.3 1035.11 264.8C1031.91 258.2 1030.31 250.6 1030.31 242ZM1093.01 242.15C1093.01 235.75 1091.21 230.7 1087.61 227C1084.11 223.3 1079.81 221.45 1074.71 221.45C1069.61 221.45 1065.26 223.3 1061.66 227C1058.16 230.6 1056.41 235.6 1056.41 242C1056.41 248.4 1058.16 253.5 1061.66 257.3C1065.26 261 1069.61 262.85 1074.71 262.85C1079.81 262.85 1084.11 261 1087.61 257.3C1091.21 253.6 1093.01 248.55 1093.01 242.15ZM1132.12 242.15C1132.12 233.45 1133.87 225.85 1137.37 219.35C1140.97 212.85 1145.92 207.85 1152.22 204.35C1158.62 200.85 1165.92 199.1 1174.12 199.1C1184.62 199.1 1193.37 201.85 1200.37 207.35C1207.47 212.85 1212.12 220.6 1214.32 230.6H1187.02C1184.72 224.2 1180.27 221 1173.67 221C1168.97 221 1165.22 222.85 1162.42 226.55C1159.62 230.15 1158.22 235.35 1158.22 242.15C1158.22 248.95 1159.62 254.2 1162.42 257.9C1165.22 261.5 1168.97 263.3 1173.67 263.3C1180.27 263.3 1184.72 260.1 1187.02 253.7H1214.32C1212.12 263.5 1207.47 271.2 1200.37 276.8C1193.27 282.4 1184.52 285.2 1174.12 285.2C1165.92 285.2 1158.62 283.45 1152.22 279.95C1145.92 276.45 1140.97 271.45 1137.37 264.95C1133.87 258.45 1132.12 250.85 1132.12 242.15ZM1222.94 242C1222.94 233.4 1224.54 225.85 1227.74 219.35C1231.04 212.85 1235.49 207.85 1241.09 204.35C1246.69 200.85 1252.94 199.1 1259.84 199.1C1265.74 199.1 1270.89 200.3 1275.29 202.7C1279.79 205.1 1283.24 208.25 1285.64 212.15V200.3H1311.29V284H1285.64V272.15C1283.14 276.05 1279.64 279.2 1275.14 281.6C1270.74 284 1265.59 285.2 1259.69 285.2C1252.89 285.2 1246.69 283.45 1241.09 279.95C1235.49 276.35 1231.04 271.3 1227.74 264.8C1224.54 258.2 1222.94 250.6 1222.94 242ZM1285.64 242.15C1285.64 235.75 1283.84 230.7 1280.24 227C1276.74 223.3 1272.44 221.45 1267.34 221.45C1262.24 221.45 1257.89 223.3 1254.29 227C1250.79 230.6 1249.04 235.6 1249.04 242C1249.04 248.4 1250.79 253.5 1254.29 257.3C1257.89 261 1262.24 262.85 1267.34 262.85C1272.44 262.85 1276.74 261 1280.24 257.3C1283.84 253.6 1285.64 248.55 1285.64 242.15ZM1363.89 285.2C1356.59 285.2 1350.09 283.95 1344.39 281.45C1338.69 278.95 1334.19 275.55 1330.89 271.25C1327.59 266.85 1325.74 261.95 1325.34 256.55H1350.69C1350.99 259.45 1352.34 261.8 1354.74 263.6C1357.14 265.4 1360.09 266.3 1363.59 266.3C1366.79 266.3 1369.24 265.7 1370.94 264.5C1372.74 263.2 1373.64 261.55 1373.64 259.55C1373.64 257.15 1372.39 255.4 1369.89 254.3C1367.39 253.1 1363.34 251.8 1357.74 250.4C1351.74 249 1346.74 247.55 1342.74 246.05C1338.74 244.45 1335.29 242 1332.39 238.7C1329.49 235.3 1328.04 230.75 1328.04 225.05C1328.04 220.25 1329.34 215.9 1331.94 212C1334.64 208 1338.54 204.85 1343.64 202.55C1348.84 200.25 1354.99 199.1 1362.09 199.1C1372.59 199.1 1380.84 201.7 1386.84 206.9C1392.94 212.1 1396.44 219 1397.34 227.6H1373.64C1373.24 224.7 1371.94 222.4 1369.74 220.7C1367.64 219 1364.84 218.15 1361.34 218.15C1358.34 218.15 1356.04 218.75 1354.44 219.95C1352.84 221.05 1352.04 222.6 1352.04 224.6C1352.04 227 1353.29 228.8 1355.79 230C1358.39 231.2 1362.39 232.4 1367.79 233.6C1373.99 235.2 1379.04 236.8 1382.94 238.4C1386.84 239.9 1390.24 242.4 1393.14 245.9C1396.14 249.3 1397.69 253.9 1397.79 259.7C1397.79 264.6 1396.39 269 1393.59 272.9C1390.89 276.7 1386.94 279.7 1381.74 281.9C1376.64 284.1 1370.69 285.2 1363.89 285.2ZM1460.14 262.25V284H1447.09C1437.79 284 1430.54 281.75 1425.34 277.25C1420.14 272.65 1417.54 265.2 1417.54 254.9V221.6H1407.34V200.3H1417.54V179.9H1443.19V200.3H1459.99V221.6H1443.19V255.2C1443.19 257.7 1443.79 259.5 1444.99 260.6C1446.19 261.7 1448.19 262.25 1450.99 262.25H1460.14Z" fill="#EEEEEE"/>
</svg>
